<?xml version="1.0" encoding="UTF-8" standalone="no"?>
<!DOCTYPE svg PUBLIC "-//W3C//DTD SVG 1.1//EN" "http://www.w3.org/Graphics/SVG/1.1/DTD/svg11.dtd">
<svg width="100%" height="100%" viewBox="0 0 72 72" version="1.1" xmlns="http://www.w3.org/2000/svg" xmlns:xlink="http://www.w3.org/1999/xlink" xml:space="preserve" style="fill-rule:evenodd;clip-rule:evenodd;stroke-linejoin:round;stroke-miterlimit:1.41421;">
    <path d="M58.9,42.2L54.9,42.2L54.9,29.8L58.9,29.8L59.5,32.5L72,32.5C71.9,31.6 71.8,30.7 71.6,29.8C70.8,25.3 69.2,21.1 67,17.4L55,17.4L55,15C55.5,14.8 56.1,14.7 56.3,14.7L57.4,14.5L57.4,6.6L56.8,6.2C52.2,3.1 47,1 41.5,0.2L39.9,0L39.9,12.5L41,12.7C41.5,12.8 42,12.9 42.5,13.1L42.5,17.4L30.1,17.4L30.1,13.1L31.6,12.7L32.7,12.5L32.7,0L31.1,0.2C25.7,1 20.4,3 15.8,6.2L15.2,6.6L15.2,14.4L16.3,14.6C16.5,14.6 17,14.8 17.6,14.9L17.6,17.3L5.2,17.3C2.9,21.1 1.3,25.2 0.6,29.7C0.2,31.8 0,33.9 0,36C0,38.1 0.2,40.2 0.5,42.2C1.3,46.7 2.9,50.9 5.1,54.6L17.6,54.6L17.6,66.8L18.3,67.2C23.8,70.4 30,72 36.3,72C42.6,72 48.8,70.4 54.2,67.2L54.9,66.8L54.9,54.7L66.9,54.7C69.2,50.9 70.8,46.8 71.5,42.3C71.7,41.4 71.8,40.5 71.9,39.6L59.5,39.6C59.4,40.5 59.2,41.4 58.9,42.2M41.3,11.3L41.3,1.6C46.7,2.4 51.7,4.4 56,7.4L56,13.2C55.6,13.3 54.3,13.7 53.6,13.9L53.6,42.2L44,42.2L44,12L43,11.7L41.3,11.3M42.6,29.8L42.6,42.2L30.1,42.2L30.1,29.8L42.6,29.8ZM30.1,54.7L42.5,54.7L42.5,58.8C40.5,59.3 38.4,59.6 36.3,59.6C34.2,59.6 32.1,59.3 30.1,58.8L30.1,54.7L30.1,54.7ZM16.7,13.2L16.7,7.4C21,4.4 26,2.4 31.4,1.7L31.4,11.4C30.9,11.5 30.3,11.6 29.8,11.8L28.8,12.1L28.8,17.5L19.2,17.5L19.2,14C18.4,13.7 17.1,13.3 16.7,13.2M17.7,34L17.7,42.2L13.3,42.2C12.8,40.2 12.5,38.1 12.5,36C12.5,33.8 12.8,31.8 13.3,29.8L17.7,29.8L17.7,34ZM53.6,66C48.5,68.9 42.6,70.6 36.4,70.6C30.1,70.6 24.3,68.9 19.2,66L19.2,29.8L28.8,29.8L28.8,59.8L29.8,60.1C31.9,60.7 34.2,61 36.4,61C38.6,61 40.8,60.7 43,60.1L44,59.8L44,54.6L53.6,54.6L53.6,66Z" style="fill:rgb(168,36,57);fill-rule:nonzero;"/>
</svg>
