<?xml version="1.0" encoding="UTF-8" standalone="no"?>
<!DOCTYPE svg PUBLIC "-//W3C//DTD SVG 1.1//EN" "http://www.w3.org/Graphics/SVG/1.1/DTD/svg11.dtd">
<svg width="100%" height="100%" viewBox="0 0 160 29" version="1.1" xmlns="http://www.w3.org/2000/svg" xmlns:xlink="http://www.w3.org/1999/xlink" xml:space="preserve" style="fill-rule:evenodd;clip-rule:evenodd;stroke-linejoin:round;stroke-miterlimit:1.41421;">
    <g transform="matrix(1,0,0,1,-56.79,0)">
        <g transform="matrix(1,0,0,1,56.79,0)">
            <path d="M13.04,14.46L0,27.49L0,14.46L13.04,14.46Z" style="fill:rgb(152,0,46);fill-rule:nonzero;"/>
            <path d="M0,13.62L0,0.59L13.04,13.62L0,13.62Z" style="fill:rgb(152,0,46);fill-rule:nonzero;"/>
            <path d="M27.49,0L14.46,13.03L14.46,0L27.49,0Z" style="fill:rgb(152,0,46);fill-rule:nonzero;"/>
            <path d="M13.62,13.03L0.59,0L13.62,0L13.62,13.03Z" style="fill:rgb(152,0,46);fill-rule:nonzero;"/>
            <path d="M15.05,13.62L28.08,0.59L28.08,13.62L15.05,13.62Z" style="fill:rgb(152,0,46);fill-rule:nonzero;"/>
            <path d="M28.08,14.46L28.08,27.49L15.05,14.46L28.08,14.46Z" style="fill:rgb(152,0,46);fill-rule:nonzero;"/>
            <path d="M13.62,15.05L0.59,28.08L13.62,28.08L13.62,15.05Z" style="fill:rgb(152,0,46);fill-rule:nonzero;"/>
            <path d="M14.46,15.05L14.46,28.08L27.49,28.08L14.46,15.05Z" style="fill:rgb(152,0,46);fill-rule:nonzero;"/>
        </g>
        <g transform="matrix(1,0,0,1,-12.6063,-1.39732)">
            <text x="105.973px" y="22.894px" style="font-family:'Futura-Medium', 'Futura', sans-serif;font-weight:500;font-size:20px;">C<tspan x="120.407px 135.075px " y="22.894px 22.894px ">HA</tspan>PPRESS</text>
        </g>
    </g>
</svg>
